<svg width="140" height="140" viewBox="0 0 140 140" fill="none" xmlns="http://www.w3.org/2000/svg">
<circle cx="70" cy="70" r="68" fill="#1DB261" stroke="#1DB261" stroke-width="4"/>
<path d="M26 68.1848V73.3444C50.498 62.2078 58.6297 97.7345 108.355 76.1249C110.128 75.3572 111.639 74.0784 112.703 72.4472C113.766 70.8159 114.334 68.904 114.335 66.9484C60.0836 93.7453 51.6991 56.5527 27.1606 66.4502C26.8183 66.5884 26.5248 66.8275 26.3178 67.1368C26.1109 67.446 26.0002 67.8111 26 68.1848Z" fill="white"/>
<path d="M114.102 55.2187C97.8226 47.8182 88.7703 61.0235 69.9358 64.3755C80.5412 66.2629 94.2505 65.0247 114.102 55.2187Z" fill="white"/>
<path d="M26 64.3121C51.2863 52.8154 59.1371 91.0366 113.285 64.8257C113.599 64.674 113.865 64.4352 114.05 64.137C114.236 63.8388 114.335 63.4933 114.335 63.1405V57.9152C65.1553 82.2065 53.6678 53.914 33.6696 55.7851C31.5735 55.9806 29.625 56.9635 28.2062 58.5409C26.7873 60.1184 26.0005 62.1767 26 64.3121Z" fill="white"/>
<path d="M26.2318 76.2243C42.5083 68.8238 51.562 82.0291 70.3962 85.3817C59.7884 87.2682 46.0818 86.0303 26.2318 76.2243Z" fill="white"/>
</svg>
