<svg width="254" height="58" viewBox="0 0 254 58" fill="none" xmlns="http://www.w3.org/2000/svg">
<circle cx="29" cy="29" r="27.5" stroke="#1DB261" stroke-width="3"/>
<path d="M10.4403 29.491V31.6286C20.5895 27.0149 23.9583 41.733 44.5588 32.7805C45.2932 32.4625 45.9195 31.9327 46.36 31.2569C46.8003 30.5811 47.0356 29.789 47.0364 28.9788C24.5607 40.0804 21.0871 24.672 10.9211 28.7724C10.7793 28.8297 10.6577 28.9287 10.572 29.0568C10.4863 29.185 10.4404 29.3362 10.4403 29.491Z" fill="#1DB261"/>
<path d="M46.9398 24.1194C40.1954 21.0534 36.4452 26.5242 28.6423 27.9129C33.036 28.6948 38.7155 28.1818 46.9398 24.1194Z" fill="#1DB261"/>
<path d="M10.4403 27.8867C20.9161 23.1237 24.1685 38.9582 46.6014 28.0994C46.7314 28.0366 46.8413 27.9376 46.9184 27.8141C46.9953 27.6905 47.0363 27.5474 47.0364 27.4013V25.2365C26.6618 35.3 21.9027 23.5789 13.6177 24.354C12.7493 24.435 11.9421 24.8422 11.3543 25.4957C10.7665 26.1492 10.4405 27.002 10.4403 27.8867Z" fill="#1DB261"/>
<path d="M10.5364 32.8217C17.2794 29.7558 21.0303 35.2265 28.833 36.6155C24.4383 37.397 18.7599 36.8842 10.5364 32.8217Z" fill="#1DB261"/>
<path d="M73.772 30H69.692V12.516H73.772V30ZM93.3691 12.516V30H91.2571C90.9451 30 90.6811 29.952 90.4651 29.856C90.2571 29.752 90.0491 29.576 89.8411 29.328L81.5971 18.9C81.6291 19.212 81.6491 19.516 81.6571 19.812C81.6731 20.1 81.6811 20.372 81.6811 20.628V30H78.1051V12.516H80.2411C80.4171 12.516 80.5651 12.524 80.6851 12.54C80.8051 12.556 80.9131 12.588 81.0091 12.636C81.1051 12.676 81.1971 12.736 81.2851 12.816C81.3731 12.896 81.4731 13.004 81.5851 13.14L89.9011 23.64C89.8611 23.304 89.8331 22.98 89.8171 22.668C89.8011 22.348 89.7931 22.048 89.7931 21.768V12.516H93.3691ZM101.801 15.636V20.064H107.777V23.196H101.801V30H97.7214V12.516H108.977V15.636H101.801ZM129.271 21.252C129.271 22.516 129.051 23.692 128.611 24.78C128.179 25.868 127.567 26.816 126.775 27.624C125.983 28.424 125.027 29.052 123.907 29.508C122.795 29.964 121.559 30.192 120.199 30.192C118.839 30.192 117.599 29.964 116.479 29.508C115.359 29.052 114.399 28.424 113.599 27.624C112.807 26.816 112.191 25.868 111.751 24.78C111.319 23.692 111.103 22.516 111.103 21.252C111.103 19.988 111.319 18.812 111.751 17.724C112.191 16.636 112.807 15.692 113.599 14.892C114.399 14.092 115.359 13.464 116.479 13.008C117.599 12.552 118.839 12.324 120.199 12.324C121.559 12.324 122.795 12.556 123.907 13.02C125.027 13.476 125.983 14.104 126.775 14.904C127.567 15.704 128.179 16.648 128.611 17.736C129.051 18.824 129.271 19.996 129.271 21.252ZM125.119 21.252C125.119 20.388 125.007 19.612 124.783 18.924C124.559 18.228 124.235 17.64 123.811 17.16C123.395 16.68 122.883 16.312 122.275 16.056C121.667 15.8 120.975 15.672 120.199 15.672C119.415 15.672 118.715 15.8 118.099 16.056C117.491 16.312 116.975 16.68 116.551 17.16C116.135 17.64 115.815 18.228 115.591 18.924C115.367 19.612 115.255 20.388 115.255 21.252C115.255 22.124 115.367 22.908 115.591 23.604C115.815 24.292 116.135 24.876 116.551 25.356C116.975 25.836 117.491 26.204 118.099 26.46C118.715 26.708 119.415 26.832 120.199 26.832C120.975 26.832 121.667 26.708 122.275 26.46C122.883 26.204 123.395 25.836 123.811 25.356C124.235 24.876 124.559 24.292 124.783 23.604C125.007 22.908 125.119 22.124 125.119 21.252ZM139.53 26.94C140.066 26.94 140.502 26.872 140.838 26.736C141.182 26.6 141.45 26.424 141.642 26.208C141.834 25.992 141.966 25.748 142.038 25.476C142.11 25.204 142.146 24.928 142.146 24.648C142.146 24.328 142.102 24.04 142.014 23.784C141.934 23.528 141.79 23.312 141.582 23.136C141.382 22.96 141.114 22.824 140.778 22.728C140.442 22.632 140.018 22.584 139.506 22.584H136.674V26.94H139.53ZM136.674 15.552V19.872H138.786C139.234 19.872 139.638 19.84 139.998 19.776C140.358 19.712 140.662 19.6 140.91 19.44C141.166 19.28 141.358 19.06 141.486 18.78C141.622 18.5 141.69 18.148 141.69 17.724C141.69 17.308 141.638 16.964 141.534 16.692C141.43 16.412 141.27 16.188 141.054 16.02C140.838 15.852 140.562 15.732 140.226 15.66C139.898 15.588 139.506 15.552 139.05 15.552H136.674ZM139.05 12.516C140.258 12.516 141.286 12.628 142.134 12.852C142.982 13.076 143.674 13.392 144.21 13.8C144.746 14.208 145.134 14.704 145.374 15.288C145.622 15.872 145.746 16.524 145.746 17.244C145.746 17.636 145.69 18.016 145.578 18.384C145.466 18.744 145.29 19.084 145.05 19.404C144.81 19.716 144.502 20.004 144.126 20.268C143.75 20.532 143.298 20.76 142.77 20.952C143.922 21.232 144.774 21.684 145.326 22.308C145.878 22.932 146.154 23.74 146.154 24.732C146.154 25.476 146.01 26.168 145.722 26.808C145.434 27.448 145.01 28.008 144.45 28.488C143.898 28.96 143.214 29.332 142.398 29.604C141.582 29.868 140.65 30 139.602 30H132.618V12.516H139.05ZM153.736 15.636V19.716H159.232V22.716H153.736V26.88H160.912V30H149.656V12.516H160.912V15.636H153.736ZM179.638 12.516V30H177.526C177.214 30 176.95 29.952 176.734 29.856C176.526 29.752 176.318 29.576 176.11 29.328L167.866 18.9C167.898 19.212 167.918 19.516 167.926 19.812C167.942 20.1 167.95 20.372 167.95 20.628V30H164.374V12.516H166.51C166.686 12.516 166.834 12.524 166.954 12.54C167.074 12.556 167.182 12.588 167.278 12.636C167.374 12.676 167.466 12.736 167.554 12.816C167.642 12.896 167.742 13.004 167.854 13.14L176.17 23.64C176.13 23.304 176.102 22.98 176.086 22.668C176.07 22.348 176.062 22.048 176.062 21.768V12.516H179.638ZM195.774 25.476C195.87 25.476 195.966 25.496 196.062 25.536C196.158 25.568 196.25 25.628 196.338 25.716L197.946 27.408C197.242 28.328 196.358 29.024 195.294 29.496C194.238 29.96 192.986 30.192 191.538 30.192C190.21 30.192 189.018 29.968 187.962 29.52C186.914 29.064 186.022 28.44 185.286 27.648C184.558 26.848 183.998 25.904 183.606 24.816C183.214 23.72 183.018 22.532 183.018 21.252C183.018 19.948 183.23 18.752 183.654 17.664C184.078 16.568 184.674 15.624 185.442 14.832C186.21 14.04 187.13 13.424 188.202 12.984C189.274 12.544 190.454 12.324 191.742 12.324C192.398 12.324 193.014 12.384 193.59 12.504C194.174 12.616 194.718 12.776 195.222 12.984C195.726 13.184 196.19 13.428 196.614 13.716C197.038 14.004 197.414 14.316 197.742 14.652L196.374 16.488C196.286 16.6 196.182 16.704 196.062 16.8C195.942 16.888 195.774 16.932 195.558 16.932C195.414 16.932 195.278 16.9 195.15 16.836C195.022 16.772 194.886 16.696 194.742 16.608C194.598 16.512 194.438 16.412 194.262 16.308C194.094 16.196 193.89 16.096 193.65 16.008C193.418 15.912 193.142 15.832 192.822 15.768C192.51 15.704 192.142 15.672 191.718 15.672C191.046 15.672 190.43 15.796 189.87 16.044C189.318 16.292 188.838 16.656 188.43 17.136C188.03 17.608 187.718 18.192 187.494 18.888C187.278 19.576 187.17 20.364 187.17 21.252C187.17 22.148 187.29 22.944 187.53 23.64C187.778 24.336 188.11 24.924 188.526 25.404C188.95 25.876 189.442 26.236 190.002 26.484C190.562 26.732 191.162 26.856 191.802 26.856C192.17 26.856 192.506 26.84 192.81 26.808C193.114 26.768 193.398 26.708 193.662 26.628C193.926 26.54 194.174 26.428 194.406 26.292C194.638 26.148 194.874 25.968 195.114 25.752C195.21 25.672 195.314 25.608 195.426 25.56C195.538 25.504 195.654 25.476 195.774 25.476ZM209.917 23.316L208.297 18.528C208.177 18.224 208.049 17.868 207.913 17.46C207.777 17.044 207.641 16.596 207.505 16.116C207.385 16.604 207.257 17.056 207.121 17.472C206.985 17.888 206.857 18.248 206.737 18.552L205.129 23.316H209.917ZM216.361 30H213.217C212.865 30 212.581 29.92 212.365 29.76C212.149 29.592 211.985 29.38 211.873 29.124L210.841 26.076H204.193L203.161 29.124C203.073 29.348 202.913 29.552 202.681 29.736C202.457 29.912 202.177 30 201.841 30H198.673L205.441 12.516H209.593L216.361 30ZM233.963 12.516V30H231.851C231.539 30 231.275 29.952 231.059 29.856C230.851 29.752 230.643 29.576 230.435 29.328L222.191 18.9C222.223 19.212 222.243 19.516 222.251 19.812C222.267 20.1 222.275 20.372 222.275 20.628V30H218.699V12.516H220.835C221.011 12.516 221.159 12.524 221.279 12.54C221.399 12.556 221.507 12.588 221.603 12.636C221.699 12.676 221.791 12.736 221.879 12.816C221.967 12.896 222.067 13.004 222.179 13.14L230.495 23.64C230.455 23.304 230.427 22.98 230.411 22.668C230.395 22.348 230.387 22.048 230.387 21.768V12.516H233.963ZM247.555 23.316L245.935 18.528C245.815 18.224 245.687 17.868 245.551 17.46C245.415 17.044 245.279 16.596 245.143 16.116C245.023 16.604 244.895 17.056 244.759 17.472C244.623 17.888 244.495 18.248 244.375 18.552L242.767 23.316H247.555ZM253.999 30H250.855C250.503 30 250.219 29.92 250.003 29.76C249.787 29.592 249.623 29.38 249.511 29.124L248.479 26.076H241.831L240.799 29.124C240.711 29.348 240.551 29.552 240.319 29.736C240.095 29.912 239.815 30 239.479 30H236.311L243.079 12.516H247.231L253.999 30Z" fill="#1DB261"/>
<path d="M73.2422 44.1016C73.2005 43.7318 73.0286 43.4453 72.7266 43.2422C72.4245 43.0365 72.0443 42.9336 71.5859 42.9336C71.2578 42.9336 70.974 42.9857 70.7344 43.0898C70.4948 43.1914 70.3086 43.332 70.1758 43.5117C70.0456 43.6888 69.9805 43.8906 69.9805 44.1172C69.9805 44.3073 70.0247 44.4714 70.1133 44.6094C70.2044 44.7474 70.3229 44.8633 70.4688 44.957C70.6172 45.0482 70.776 45.125 70.9453 45.1875C71.1146 45.2474 71.2773 45.2969 71.4336 45.3359L72.2148 45.5391C72.4701 45.6016 72.7318 45.6862 73 45.793C73.2682 45.8997 73.5169 46.0404 73.7461 46.2148C73.9753 46.3893 74.1602 46.6055 74.3008 46.8633C74.444 47.1211 74.5156 47.4297 74.5156 47.7891C74.5156 48.2422 74.3984 48.6445 74.1641 48.9961C73.9323 49.3477 73.5951 49.625 73.1523 49.8281C72.7122 50.0313 72.1797 50.1328 71.5547 50.1328C70.9557 50.1328 70.4375 50.0378 70 49.8477C69.5625 49.6576 69.2201 49.388 68.9727 49.0391C68.7253 48.6875 68.5885 48.2708 68.5625 47.7891H69.7734C69.7969 48.0781 69.8906 48.319 70.0547 48.5117C70.2214 48.7018 70.4336 48.8437 70.6914 48.9375C70.9518 49.0286 71.237 49.0742 71.5469 49.0742C71.888 49.0742 72.1914 49.0208 72.457 48.9141C72.7253 48.8047 72.9362 48.6536 73.0898 48.4609C73.2435 48.2656 73.3203 48.0378 73.3203 47.7773C73.3203 47.5404 73.2526 47.3464 73.1172 47.1953C72.9844 47.0443 72.8034 46.9193 72.5742 46.8203C72.3477 46.7214 72.0911 46.6341 71.8047 46.5586L70.8594 46.3008C70.2188 46.1263 69.7109 45.8698 69.3359 45.5312C68.9635 45.1927 68.7773 44.7448 68.7773 44.1875C68.7773 43.7266 68.9023 43.3242 69.1523 42.9805C69.4023 42.6367 69.7409 42.3698 70.168 42.1797C70.5951 41.987 71.0768 41.8906 71.6133 41.8906C72.1549 41.8906 72.6328 41.9857 73.0469 42.1758C73.4635 42.3659 73.7917 42.6276 74.0313 42.9609C74.2708 43.2917 74.3958 43.6719 74.4063 44.1016H73.2422ZM77.6104 50.1328C77.2301 50.1328 76.8864 50.0625 76.5791 49.9219C76.2718 49.7786 76.0283 49.5716 75.8486 49.3008C75.6715 49.0299 75.583 48.6979 75.583 48.3047C75.583 47.9661 75.6481 47.6875 75.7783 47.4687C75.9085 47.25 76.0843 47.0768 76.3057 46.9492C76.527 46.8216 76.7744 46.7253 77.0479 46.6602C77.3213 46.5951 77.5999 46.5456 77.8838 46.5117C78.2432 46.4701 78.5348 46.4362 78.7588 46.4102C78.9827 46.3815 79.1455 46.3359 79.2471 46.2734C79.3486 46.2109 79.3994 46.1094 79.3994 45.9687V45.9414C79.3994 45.6003 79.3031 45.3359 79.1104 45.1484C78.9202 44.9609 78.6364 44.8672 78.2588 44.8672C77.8656 44.8672 77.5557 44.9544 77.3291 45.1289C77.1051 45.3008 76.9502 45.4922 76.8643 45.7031L75.7666 45.4531C75.8968 45.0885 76.0869 44.7943 76.3369 44.5703C76.5895 44.3437 76.8799 44.1797 77.208 44.0781C77.5361 43.974 77.8812 43.9219 78.2432 43.9219C78.4827 43.9219 78.7367 43.9505 79.0049 44.0078C79.2757 44.0625 79.5283 44.1641 79.7627 44.3125C79.9997 44.4609 80.1937 44.6732 80.3447 44.9492C80.4958 45.2227 80.5713 45.5781 80.5713 46.0156V50H79.4307V49.1797H79.3838C79.3083 49.3307 79.195 49.4792 79.0439 49.625C78.8929 49.7708 78.6989 49.8919 78.4619 49.9883C78.2249 50.0846 77.9411 50.1328 77.6104 50.1328ZM77.8643 49.1953C78.1872 49.1953 78.4632 49.1315 78.6924 49.0039C78.9242 48.8763 79.0999 48.7096 79.2197 48.5039C79.3421 48.2956 79.4033 48.0729 79.4033 47.8359V47.0625C79.3617 47.1042 79.2809 47.1432 79.1611 47.1797C79.0439 47.2135 78.9098 47.2435 78.7588 47.2695C78.6077 47.293 78.4606 47.3151 78.3174 47.3359C78.1742 47.3542 78.0544 47.3698 77.958 47.3828C77.7314 47.4115 77.5244 47.4596 77.3369 47.5273C77.152 47.5951 77.0036 47.6927 76.8916 47.8203C76.7822 47.9453 76.7275 48.112 76.7275 48.3203C76.7275 48.6094 76.8343 48.8281 77.0479 48.9766C77.2614 49.1224 77.5335 49.1953 77.8643 49.1953ZM84.9277 44V44.9375H81.6504V44H84.9277ZM82.5293 42.5625H83.6973V48.2383C83.6973 48.4648 83.7311 48.6354 83.7988 48.75C83.8665 48.862 83.9538 48.9388 84.0605 48.9805C84.1699 49.0195 84.2884 49.0391 84.416 49.0391C84.5098 49.0391 84.5918 49.0326 84.6621 49.0195C84.7324 49.0065 84.7871 48.9961 84.8262 48.9883L85.0371 49.9531C84.9694 49.9792 84.873 50.0052 84.748 50.0313C84.623 50.0599 84.4668 50.0755 84.2793 50.0781C83.972 50.0833 83.6855 50.0286 83.4199 49.9141C83.1543 49.7995 82.9395 49.6224 82.7754 49.3828C82.6113 49.1432 82.5293 48.8424 82.5293 48.4805V42.5625ZM90.0205 47.5117V44H91.1924V50H90.0439V48.9609H89.9814C89.8434 49.2813 89.6221 49.5482 89.3174 49.7617C89.0153 49.9727 88.639 50.0781 88.1885 50.0781C87.8031 50.0781 87.4619 49.9935 87.165 49.8242C86.8708 49.6523 86.639 49.3984 86.4697 49.0625C86.3031 48.7266 86.2197 48.3112 86.2197 47.8164V44H87.3877V47.6758C87.3877 48.0846 87.501 48.4102 87.7275 48.6523C87.9541 48.8945 88.2484 49.0156 88.6104 49.0156C88.8291 49.0156 89.0465 48.9609 89.2627 48.8516C89.4814 48.7422 89.6624 48.5768 89.8057 48.3555C89.9515 48.1341 90.0231 47.8529 90.0205 47.5117ZM95.3721 43.0391V42H101.563V43.0391H99.0674V50H97.8643V43.0391H95.3721ZM105.822 47.5117V44H106.994V50H105.846V48.9609H105.783C105.645 49.2813 105.424 49.5482 105.119 49.7617C104.817 49.9727 104.441 50.0781 103.99 50.0781C103.605 50.0781 103.264 49.9935 102.967 49.8242C102.673 49.6523 102.441 49.3984 102.271 49.0625C102.105 48.7266 102.021 48.3112 102.021 47.8164V44H103.189V47.6758C103.189 48.0846 103.303 48.4102 103.529 48.6523C103.756 48.8945 104.05 49.0156 104.412 49.0156C104.631 49.0156 104.848 48.9609 105.064 48.8516C105.283 48.7422 105.464 48.5768 105.607 48.3555C105.753 48.1341 105.825 47.8529 105.822 47.5117ZM108.563 44H109.731V50.3906C109.731 50.7917 109.659 51.1302 109.513 51.4062C109.369 51.6823 109.156 51.8919 108.872 52.0352C108.591 52.1784 108.243 52.25 107.829 52.25C107.787 52.25 107.748 52.25 107.712 52.25C107.673 52.25 107.632 52.2487 107.591 52.2461V51.2422C107.627 51.2422 107.66 51.2422 107.688 51.2422C107.715 51.2422 107.744 51.2422 107.778 51.2422C108.054 51.2422 108.254 51.168 108.376 51.0195C108.501 50.8737 108.563 50.6615 108.563 50.3828V44ZM109.142 43.0742C108.938 43.0742 108.764 43.0065 108.618 42.8711C108.475 42.7331 108.403 42.569 108.403 42.3789C108.403 42.1862 108.475 42.0221 108.618 41.8867C108.764 41.7487 108.938 41.6797 109.142 41.6797C109.345 41.6797 109.518 41.7487 109.661 41.8867C109.807 42.0221 109.88 42.1862 109.88 42.3789C109.88 42.569 109.807 42.7331 109.661 42.8711C109.518 43.0065 109.345 43.0742 109.142 43.0742ZM115.104 47.5117V44H116.275V50H115.127V48.9609H115.064C114.926 49.2813 114.705 49.5482 114.4 49.7617C114.098 49.9727 113.722 50.0781 113.271 50.0781C112.886 50.0781 112.545 49.9935 112.248 49.8242C111.954 49.6523 111.722 49.3984 111.553 49.0625C111.386 48.7266 111.303 48.3112 111.303 47.8164V44H112.471V47.6758C112.471 48.0846 112.584 48.4102 112.811 48.6523C113.037 48.8945 113.331 49.0156 113.693 49.0156C113.912 49.0156 114.13 48.9609 114.346 48.8516C114.564 48.7422 114.745 48.5768 114.889 48.3555C115.035 48.1341 115.106 47.8529 115.104 47.5117ZM119.591 50.1328C119.211 50.1328 118.867 50.0625 118.56 49.9219C118.252 49.7786 118.009 49.5716 117.829 49.3008C117.652 49.0299 117.563 48.6979 117.563 48.3047C117.563 47.9661 117.629 47.6875 117.759 47.4687C117.889 47.25 118.065 47.0768 118.286 46.9492C118.507 46.8216 118.755 46.7253 119.028 46.6602C119.302 46.5951 119.58 46.5456 119.864 46.5117C120.224 46.4701 120.515 46.4362 120.739 46.4102C120.963 46.3815 121.126 46.3359 121.228 46.2734C121.329 46.2109 121.38 46.1094 121.38 45.9687V45.9414C121.38 45.6003 121.284 45.3359 121.091 45.1484C120.901 44.9609 120.617 44.8672 120.239 44.8672C119.846 44.8672 119.536 44.9544 119.31 45.1289C119.086 45.3008 118.931 45.4922 118.845 45.7031L117.747 45.4531C117.877 45.0885 118.067 44.7943 118.317 44.5703C118.57 44.3437 118.86 44.1797 119.188 44.0781C119.517 43.974 119.862 43.9219 120.224 43.9219C120.463 43.9219 120.717 43.9505 120.985 44.0078C121.256 44.0625 121.509 44.1641 121.743 44.3125C121.98 44.4609 122.174 44.6732 122.325 44.9492C122.476 45.2227 122.552 45.5781 122.552 46.0156V50H121.411V49.1797H121.364C121.289 49.3307 121.175 49.4792 121.024 49.625C120.873 49.7708 120.679 49.8919 120.442 49.9883C120.205 50.0846 119.922 50.1328 119.591 50.1328ZM119.845 49.1953C120.168 49.1953 120.444 49.1315 120.673 49.0039C120.905 48.8763 121.08 48.7096 121.2 48.5039C121.323 48.2956 121.384 48.0729 121.384 47.8359V47.0625C121.342 47.1042 121.261 47.1432 121.142 47.1797C121.024 47.2135 120.89 47.2435 120.739 47.2695C120.588 47.293 120.441 47.3151 120.298 47.3359C120.155 47.3542 120.035 47.3698 119.938 47.3828C119.712 47.4115 119.505 47.4596 119.317 47.5273C119.132 47.5951 118.984 47.6927 118.872 47.8203C118.763 47.9453 118.708 48.112 118.708 48.3203C118.708 48.6094 118.815 48.8281 119.028 48.9766C119.242 49.1224 119.514 49.1953 119.845 49.1953ZM125.275 46.4375V50H124.107V44H125.229V44.9766H125.303C125.441 44.6589 125.657 44.4036 125.951 44.2109C126.248 44.0182 126.622 43.9219 127.072 43.9219C127.481 43.9219 127.839 44.0078 128.146 44.1797C128.454 44.349 128.692 44.6016 128.861 44.9375C129.031 45.2734 129.115 45.6888 129.115 46.1836V50H127.947V46.3242C127.947 45.8893 127.834 45.5495 127.607 45.3047C127.381 45.0573 127.07 44.9336 126.674 44.9336C126.403 44.9336 126.162 44.9922 125.951 45.1094C125.743 45.2266 125.577 45.3984 125.455 45.625C125.335 45.849 125.275 46.1198 125.275 46.4375ZM133.687 50V42H136.616C137.184 42 137.654 42.0937 138.026 42.2812C138.399 42.4661 138.677 42.7174 138.862 43.0352C139.047 43.3503 139.14 43.7057 139.14 44.1016C139.14 44.4349 139.078 44.7161 138.956 44.9453C138.834 45.1719 138.67 45.3542 138.464 45.4922C138.261 45.6276 138.037 45.7266 137.792 45.7891V45.8672C138.058 45.8802 138.317 45.9661 138.569 46.125C138.825 46.2812 139.035 46.5039 139.202 46.793C139.369 47.082 139.452 47.4336 139.452 47.8477C139.452 48.2565 139.356 48.6237 139.163 48.9492C138.973 49.2721 138.679 49.5286 138.28 49.7187C137.882 49.9062 137.373 50 136.753 50H133.687ZM134.894 48.9648H136.636C137.214 48.9648 137.628 48.8529 137.878 48.6289C138.128 48.4049 138.253 48.125 138.253 47.7891C138.253 47.5365 138.189 47.3047 138.062 47.0937C137.934 46.8828 137.752 46.7148 137.515 46.5898C137.28 46.4648 137.002 46.4023 136.679 46.4023H134.894V48.9648ZM134.894 45.4609H136.511C136.782 45.4609 137.025 45.4089 137.241 45.3047C137.46 45.2005 137.633 45.0547 137.761 44.8672C137.891 44.6771 137.956 44.4531 137.956 44.1953C137.956 43.8646 137.84 43.5872 137.608 43.3633C137.377 43.1393 137.021 43.0273 136.542 43.0273H134.894V45.4609ZM142.536 50.1328C142.156 50.1328 141.812 50.0625 141.505 49.9219C141.198 49.7786 140.954 49.5716 140.774 49.3008C140.597 49.0299 140.509 48.6979 140.509 48.3047C140.509 47.9661 140.574 47.6875 140.704 47.4687C140.834 47.25 141.01 47.0768 141.231 46.9492C141.453 46.8216 141.7 46.7253 141.974 46.6602C142.247 46.5951 142.526 46.5456 142.81 46.5117C143.169 46.4701 143.461 46.4362 143.685 46.4102C143.909 46.3815 144.071 46.3359 144.173 46.2734C144.274 46.2109 144.325 46.1094 144.325 45.9687V45.9414C144.325 45.6003 144.229 45.3359 144.036 45.1484C143.846 44.9609 143.562 44.8672 143.185 44.8672C142.791 44.8672 142.481 44.9544 142.255 45.1289C142.031 45.3008 141.876 45.4922 141.79 45.7031L140.692 45.4531C140.823 45.0885 141.013 44.7943 141.263 44.5703C141.515 44.3437 141.806 44.1797 142.134 44.0781C142.462 43.974 142.807 43.9219 143.169 43.9219C143.409 43.9219 143.662 43.9505 143.931 44.0078C144.201 44.0625 144.454 44.1641 144.688 44.3125C144.925 44.4609 145.119 44.6732 145.271 44.9492C145.422 45.2227 145.497 45.5781 145.497 46.0156V50H144.356V49.1797H144.31C144.234 49.3307 144.121 49.4792 143.97 49.625C143.819 49.7708 143.625 49.8919 143.388 49.9883C143.151 50.0846 142.867 50.1328 142.536 50.1328ZM142.79 49.1953C143.113 49.1953 143.389 49.1315 143.618 49.0039C143.85 48.8763 144.026 48.7096 144.146 48.5039C144.268 48.2956 144.329 48.0729 144.329 47.8359V47.0625C144.287 47.1042 144.207 47.1432 144.087 47.1797C143.97 47.2135 143.836 47.2435 143.685 47.2695C143.534 47.293 143.386 47.3151 143.243 47.3359C143.1 47.3542 142.98 47.3698 142.884 47.3828C142.657 47.4115 142.45 47.4596 142.263 47.5273C142.078 47.5951 141.929 47.6927 141.817 47.8203C141.708 47.9453 141.653 48.112 141.653 48.3203C141.653 48.6094 141.76 48.8281 141.974 48.9766C142.187 49.1224 142.459 49.1953 142.79 49.1953ZM148.221 46.4375V50H147.053V44H148.174V44.9766H148.248C148.386 44.6589 148.602 44.4036 148.896 44.2109C149.193 44.0182 149.567 43.9219 150.018 43.9219C150.426 43.9219 150.785 44.0078 151.092 44.1797C151.399 44.349 151.637 44.6016 151.807 44.9375C151.976 45.2734 152.061 45.6888 152.061 46.1836V50H150.893V46.3242C150.893 45.8893 150.779 45.5495 150.553 45.3047C150.326 45.0573 150.015 44.9336 149.619 44.9336C149.348 44.9336 149.107 44.9922 148.896 45.1094C148.688 45.2266 148.523 45.3984 148.4 45.625C148.281 45.849 148.221 46.1198 148.221 46.4375ZM156.428 44V44.9375H153.15V44H156.428ZM154.029 42.5625H155.197V48.2383C155.197 48.4648 155.231 48.6354 155.299 48.75C155.367 48.862 155.454 48.9388 155.561 48.9805C155.67 49.0195 155.788 49.0391 155.916 49.0391C156.01 49.0391 156.092 49.0326 156.162 49.0195C156.232 49.0065 156.287 48.9961 156.326 48.9883L156.537 49.9531C156.469 49.9792 156.373 50.0052 156.248 50.0313C156.123 50.0599 155.967 50.0755 155.779 50.0781C155.472 50.0833 155.186 50.0286 154.92 49.9141C154.654 49.7995 154.439 49.6224 154.275 49.3828C154.111 49.1432 154.029 48.8424 154.029 48.4805V42.5625ZM161.521 47.5117V44H162.692V50H161.544V48.9609H161.481C161.343 49.2813 161.122 49.5482 160.817 49.7617C160.515 49.9727 160.139 50.0781 159.688 50.0781C159.303 50.0781 158.962 49.9935 158.665 49.8242C158.371 49.6523 158.139 49.3984 157.97 49.0625C157.803 48.7266 157.72 48.3112 157.72 47.8164V44H158.888V47.6758C158.888 48.0846 159.001 48.4102 159.228 48.6523C159.454 48.8945 159.748 49.0156 160.11 49.0156C160.329 49.0156 160.547 48.9609 160.763 48.8516C160.981 48.7422 161.162 48.5768 161.306 48.3555C161.451 48.1341 161.523 47.8529 161.521 47.5117ZM171.63 44.1016C171.588 43.7318 171.416 43.4453 171.114 43.2422C170.812 43.0365 170.432 42.9336 169.974 42.9336C169.646 42.9336 169.362 42.9857 169.122 43.0898C168.882 43.1914 168.696 43.332 168.563 43.5117C168.433 43.6888 168.368 43.8906 168.368 44.1172C168.368 44.3073 168.412 44.4714 168.501 44.6094C168.592 44.7474 168.711 44.8633 168.856 44.957C169.005 45.0482 169.164 45.125 169.333 45.1875C169.502 45.2474 169.665 45.2969 169.821 45.3359L170.603 45.5391C170.858 45.6016 171.119 45.6862 171.388 45.793C171.656 45.8997 171.905 46.0404 172.134 46.2148C172.363 46.3893 172.548 46.6055 172.688 46.8633C172.832 47.1211 172.903 47.4297 172.903 47.7891C172.903 48.2422 172.786 48.6445 172.552 48.9961C172.32 49.3477 171.983 49.625 171.54 49.8281C171.1 50.0313 170.567 50.1328 169.942 50.1328C169.343 50.1328 168.825 50.0378 168.388 49.8477C167.95 49.6576 167.608 49.388 167.36 49.0391C167.113 48.6875 166.976 48.2708 166.95 47.7891H168.161C168.185 48.0781 168.278 48.319 168.442 48.5117C168.609 48.7018 168.821 48.8437 169.079 48.9375C169.34 49.0286 169.625 49.0742 169.935 49.0742C170.276 49.0742 170.579 49.0208 170.845 48.9141C171.113 48.8047 171.324 48.6536 171.478 48.4609C171.631 48.2656 171.708 48.0378 171.708 47.7773C171.708 47.5404 171.64 47.3464 171.505 47.1953C171.372 47.0443 171.191 46.9193 170.962 46.8203C170.735 46.7214 170.479 46.6341 170.192 46.5586L169.247 46.3008C168.606 46.1263 168.099 45.8698 167.724 45.5312C167.351 45.1927 167.165 44.7448 167.165 44.1875C167.165 43.7266 167.29 43.3242 167.54 42.9805C167.79 42.6367 168.129 42.3698 168.556 42.1797C168.983 41.987 169.465 41.8906 170.001 41.8906C170.543 41.8906 171.021 41.9857 171.435 42.1758C171.851 42.3659 172.179 42.6276 172.419 42.9609C172.659 43.2917 172.784 43.6719 172.794 44.1016H171.63ZM176.838 50.1211C176.247 50.1211 175.738 49.9948 175.311 49.7422C174.886 49.487 174.558 49.1289 174.326 48.668C174.097 48.2044 173.982 47.6615 173.982 47.0391C173.982 46.4245 174.097 45.8828 174.326 45.4141C174.558 44.9453 174.881 44.5794 175.295 44.3164C175.712 44.0534 176.199 43.9219 176.756 43.9219C177.094 43.9219 177.423 43.9779 177.74 44.0898C178.058 44.2018 178.343 44.3776 178.596 44.6172C178.848 44.8568 179.048 45.168 179.193 45.5508C179.339 45.931 179.412 46.3932 179.412 46.9375V47.3516H174.643V46.4766H178.268C178.268 46.1693 178.205 45.8971 178.08 45.6602C177.955 45.4206 177.779 45.2318 177.553 45.0937C177.329 44.9557 177.066 44.8867 176.764 44.8867C176.436 44.8867 176.149 44.9674 175.904 45.1289C175.662 45.2878 175.475 45.4961 175.342 45.7539C175.212 46.0091 175.146 46.2865 175.146 46.5859V47.2695C175.146 47.6706 175.217 48.0117 175.357 48.293C175.501 48.5742 175.7 48.7891 175.955 48.9375C176.21 49.0833 176.508 49.1562 176.85 49.1562C177.071 49.1562 177.273 49.125 177.455 49.0625C177.637 48.9974 177.795 48.901 177.928 48.7734C178.061 48.6458 178.162 48.4883 178.232 48.3008L179.338 48.5C179.249 48.8255 179.09 49.1107 178.861 49.3555C178.635 49.5977 178.35 49.7865 178.006 49.9219C177.665 50.0547 177.275 50.1211 176.838 50.1211ZM185.204 45.4648L184.146 45.6523C184.101 45.5169 184.031 45.388 183.935 45.2656C183.841 45.1432 183.713 45.043 183.552 44.9648C183.39 44.8867 183.188 44.8477 182.946 44.8477C182.616 44.8477 182.34 44.9219 182.118 45.0703C181.897 45.2161 181.786 45.4049 181.786 45.6367C181.786 45.8372 181.86 45.9987 182.009 46.1211C182.157 46.2435 182.397 46.3437 182.728 46.4219L183.681 46.6406C184.233 46.7682 184.644 46.9648 184.915 47.2305C185.186 47.4961 185.321 47.8411 185.321 48.2656C185.321 48.625 185.217 48.9453 185.009 49.2266C184.803 49.5052 184.515 49.724 184.146 49.8828C183.778 50.0417 183.353 50.1211 182.868 50.1211C182.196 50.1211 181.648 49.9779 181.224 49.6914C180.799 49.4023 180.539 48.9922 180.442 48.4609L181.571 48.2891C181.642 48.5833 181.786 48.806 182.005 48.957C182.224 49.1055 182.509 49.1797 182.86 49.1797C183.243 49.1797 183.549 49.1003 183.778 48.9414C184.007 48.7799 184.122 48.5833 184.122 48.3516C184.122 48.1641 184.052 48.0065 183.911 47.8789C183.773 47.7513 183.561 47.6549 183.274 47.5898L182.259 47.3672C181.699 47.2396 181.285 47.0365 181.017 46.7578C180.751 46.4792 180.618 46.1263 180.618 45.6992C180.618 45.3451 180.717 45.0352 180.915 44.7695C181.113 44.5039 181.386 44.2969 181.735 44.1484C182.084 43.9974 182.484 43.9219 182.935 43.9219C183.583 43.9219 184.093 44.0625 184.466 44.3437C184.838 44.6224 185.084 44.9961 185.204 45.4648ZM188.352 50.1328C187.971 50.1328 187.628 50.0625 187.32 49.9219C187.013 49.7786 186.77 49.5716 186.59 49.3008C186.413 49.0299 186.324 48.6979 186.324 48.3047C186.324 47.9661 186.389 47.6875 186.52 47.4687C186.65 47.25 186.826 47.0768 187.047 46.9492C187.268 46.8216 187.516 46.7253 187.789 46.6602C188.063 46.5951 188.341 46.5456 188.625 46.5117C188.984 46.4701 189.276 46.4362 189.5 46.4102C189.724 46.3815 189.887 46.3359 189.988 46.2734C190.09 46.2109 190.141 46.1094 190.141 45.9687V45.9414C190.141 45.6003 190.044 45.3359 189.852 45.1484C189.661 44.9609 189.378 44.8672 189 44.8672C188.607 44.8672 188.297 44.9544 188.07 45.1289C187.846 45.3008 187.691 45.4922 187.605 45.7031L186.508 45.4531C186.638 45.0885 186.828 44.7943 187.078 44.5703C187.331 44.3437 187.621 44.1797 187.949 44.0781C188.277 43.974 188.622 43.9219 188.984 43.9219C189.224 43.9219 189.478 43.9505 189.746 44.0078C190.017 44.0625 190.27 44.1641 190.504 44.3125C190.741 44.4609 190.935 44.6732 191.086 44.9492C191.237 45.2227 191.313 45.5781 191.313 46.0156V50H190.172V49.1797H190.125C190.049 49.3307 189.936 49.4792 189.785 49.625C189.634 49.7708 189.44 49.8919 189.203 49.9883C188.966 50.0846 188.682 50.1328 188.352 50.1328ZM188.605 49.1953C188.928 49.1953 189.204 49.1315 189.434 49.0039C189.665 48.8763 189.841 48.7096 189.961 48.5039C190.083 48.2956 190.145 48.0729 190.145 47.8359V47.0625C190.103 47.1042 190.022 47.1432 189.902 47.1797C189.785 47.2135 189.651 47.2435 189.5 47.2695C189.349 47.293 189.202 47.3151 189.059 47.3359C188.915 47.3542 188.796 47.3698 188.699 47.3828C188.473 47.4115 188.266 47.4596 188.078 47.5273C187.893 47.5951 187.745 47.6927 187.633 47.8203C187.523 47.9453 187.469 48.112 187.469 48.3203C187.469 48.6094 187.576 48.8281 187.789 48.9766C188.003 49.1224 188.275 49.1953 188.605 49.1953ZM192.868 50V44H193.989V44.9766H194.063C194.188 44.6458 194.393 44.388 194.677 44.2031C194.961 44.0156 195.3 43.9219 195.696 43.9219C196.097 43.9219 196.433 44.0156 196.704 44.2031C196.978 44.3906 197.179 44.6484 197.31 44.9766H197.372C197.515 44.6562 197.743 44.401 198.056 44.2109C198.368 44.0182 198.741 43.9219 199.173 43.9219C199.717 43.9219 200.161 44.0924 200.505 44.4336C200.851 44.7747 201.024 45.2891 201.024 45.9766V50H199.856V46.0859C199.856 45.6797 199.746 45.3854 199.524 45.2031C199.303 45.0208 199.039 44.9297 198.731 44.9297C198.351 44.9297 198.056 45.0469 197.845 45.2812C197.634 45.513 197.528 45.8112 197.528 46.1758V50H196.364V46.0117C196.364 45.6862 196.263 45.4245 196.06 45.2266C195.856 45.0286 195.592 44.9297 195.267 44.9297C195.045 44.9297 194.841 44.9883 194.653 45.1055C194.468 45.2201 194.319 45.3802 194.204 45.5859C194.092 45.7917 194.036 46.0299 194.036 46.3008V50H192.868ZM204.336 50.1328C203.956 50.1328 203.612 50.0625 203.305 49.9219C202.997 49.7786 202.754 49.5716 202.574 49.3008C202.397 49.0299 202.309 48.6979 202.309 48.3047C202.309 47.9661 202.374 47.6875 202.504 47.4687C202.634 47.25 202.81 47.0768 203.031 46.9492C203.253 46.8216 203.5 46.7253 203.773 46.6602C204.047 46.5951 204.326 46.5456 204.609 46.5117C204.969 46.4701 205.26 46.4362 205.484 46.4102C205.708 46.3815 205.871 46.3359 205.973 46.2734C206.074 46.2109 206.125 46.1094 206.125 45.9687V45.9414C206.125 45.6003 206.029 45.3359 205.836 45.1484C205.646 44.9609 205.362 44.8672 204.984 44.8672C204.591 44.8672 204.281 44.9544 204.055 45.1289C203.831 45.3008 203.676 45.4922 203.59 45.7031L202.492 45.4531C202.622 45.0885 202.813 44.7943 203.063 44.5703C203.315 44.3437 203.605 44.1797 203.934 44.0781C204.262 43.974 204.607 43.9219 204.969 43.9219C205.208 43.9219 205.462 43.9505 205.73 44.0078C206.001 44.0625 206.254 44.1641 206.488 44.3125C206.725 44.4609 206.919 44.6732 207.07 44.9492C207.221 45.2227 207.297 45.5781 207.297 46.0156V50H206.156V49.1797H206.109C206.034 49.3307 205.921 49.4792 205.77 49.625C205.618 49.7708 205.424 49.8919 205.187 49.9883C204.951 50.0846 204.667 50.1328 204.336 50.1328ZM204.59 49.1953C204.913 49.1953 205.189 49.1315 205.418 49.0039C205.65 48.8763 205.826 48.7096 205.945 48.5039C206.068 48.2956 206.129 48.0729 206.129 47.8359V47.0625C206.087 47.1042 206.007 47.1432 205.887 47.1797C205.77 47.2135 205.635 47.2435 205.484 47.2695C205.333 47.293 205.186 47.3151 205.043 47.3359C204.9 47.3542 204.78 47.3698 204.684 47.3828C204.457 47.4115 204.25 47.4596 204.063 47.5273C203.878 47.5951 203.729 47.6927 203.617 47.8203C203.508 47.9453 203.453 48.112 203.453 48.3203C203.453 48.6094 203.56 48.8281 203.773 48.9766C203.987 49.1224 204.259 49.1953 204.59 49.1953Z" fill="#9A9A9B"/>
</svg>
