<svg width="435" height="100" viewBox="0 0 435 100" fill="none" xmlns="http://www.w3.org/2000/svg">
<circle cx="50.0017" cy="50.0017" r="47.323" stroke="#1DB261" stroke-width="5.35732"/>
<path d="M18.0012 50.8484V54.5339C35.5004 46.579 41.3089 71.956 76.8282 56.5201C78.0945 55.9717 79.1743 55.0582 79.9338 53.893C80.6931 52.7278 81.0988 51.3621 81.1 49.9652C42.3475 69.1064 36.3583 42.5395 18.8303 49.6093C18.5858 49.708 18.3761 49.8788 18.2283 50.0997C18.0805 50.3206 18.0014 50.5814 18.0012 50.8484Z" fill="#1DB261"/>
<path d="M80.9336 41.5865C69.3048 36.3003 62.8387 45.733 49.385 48.1273C56.9606 49.4755 66.7533 48.5911 80.9336 41.5865Z" fill="#1DB261"/>
<path d="M18.0012 48.0821C36.0635 39.8698 41.6714 67.1716 80.3501 48.4489C80.5743 48.3405 80.7637 48.17 80.8966 47.957C81.0292 47.7439 81.0998 47.4972 81.1 47.2452V43.5127C45.9702 60.8642 37.7646 40.6546 23.4797 41.9912C21.9825 42.1308 20.5906 42.8329 19.5771 43.9597C18.5636 45.0864 18.0016 46.5567 18.0012 48.0821Z" fill="#1DB261"/>
<path d="M18.1668 56.591C29.7932 51.3048 36.2604 60.7375 49.7139 63.1323C42.1366 64.4798 32.3459 63.5956 18.1668 56.591Z" fill="#1DB261"/>
<path d="M130.144 52.8677H122.858V21.6452H130.144V52.8677ZM163.426 21.6452V52.8677H159.655C159.097 52.8677 158.626 52.782 158.24 52.6105C157.869 52.4248 157.497 52.1105 157.126 51.6676L142.404 33.0456C142.461 33.6027 142.497 34.1456 142.511 34.6742C142.54 35.1885 142.554 35.6742 142.554 36.1314V52.8677H136.168V21.6452H139.982C140.297 21.6452 140.561 21.6595 140.775 21.688C140.99 21.7166 141.183 21.7738 141.354 21.8595C141.525 21.9309 141.69 22.0381 141.847 22.1809C142.004 22.3238 142.183 22.5166 142.383 22.7595L157.233 41.5101C157.162 40.9101 157.112 40.3315 157.083 39.7744C157.054 39.2029 157.04 38.6672 157.04 38.1672V21.6452H163.426ZM176.77 27.2168V35.1242H187.442V40.7173H176.77V52.8677H169.484V21.6452H189.585V27.2168H176.77ZM224.11 37.2457C224.11 39.5029 223.717 41.603 222.932 43.5459C222.16 45.4889 221.067 47.1818 219.653 48.6247C218.239 50.0533 216.531 51.1748 214.531 51.9891C212.546 52.8034 210.338 53.2105 207.91 53.2105C205.481 53.2105 203.267 52.8034 201.267 51.9891C199.267 51.1748 197.552 50.0533 196.124 48.6247C194.709 47.1818 193.609 45.4889 192.823 43.5459C192.052 41.603 191.666 39.5029 191.666 37.2457C191.666 34.9885 192.052 32.8884 192.823 30.9455C193.609 29.0026 194.709 27.3168 196.124 25.8882C197.552 24.4596 199.267 23.3381 201.267 22.5238C203.267 21.7095 205.481 21.3023 207.91 21.3023C210.338 21.3023 212.546 21.7166 214.531 22.5452C216.531 23.3595 218.239 24.481 219.653 25.9096C221.067 27.3382 222.16 29.024 222.932 30.9669C223.717 32.9099 224.11 35.0028 224.11 37.2457ZM216.696 37.2457C216.696 35.7028 216.496 34.317 216.096 33.0884C215.696 31.8455 215.117 30.7955 214.36 29.9383C213.617 29.0812 212.703 28.424 211.617 27.9668C210.531 27.5097 209.295 27.2811 207.91 27.2811C206.51 27.2811 205.26 27.5097 204.16 27.9668C203.074 28.424 202.152 29.0812 201.395 29.9383C200.652 30.7955 200.081 31.8455 199.681 33.0884C199.281 34.317 199.081 35.7028 199.081 37.2457C199.081 38.8029 199.281 40.203 199.681 41.4459C200.081 42.6745 200.652 43.7174 201.395 44.5745C202.152 45.4317 203.074 46.0889 204.16 46.546C205.26 46.9889 206.51 47.2103 207.91 47.2103C209.295 47.2103 210.531 46.9889 211.617 46.546C212.703 46.0889 213.617 45.4317 214.36 44.5745C215.117 43.7174 215.696 42.6745 216.096 41.4459C216.496 40.203 216.696 38.8029 216.696 37.2457ZM240.716 47.4032C241.673 47.4032 242.452 47.2818 243.052 47.0389C243.666 46.796 244.145 46.4817 244.487 46.096C244.83 45.7103 245.066 45.2746 245.195 44.7888C245.323 44.3031 245.387 43.8102 245.387 43.3102C245.387 42.7388 245.309 42.2245 245.152 41.7673C245.009 41.3101 244.752 40.9244 244.38 40.6101C244.023 40.2958 243.545 40.053 242.945 39.8815C242.345 39.7101 241.587 39.6244 240.673 39.6244H235.616V47.4032H240.716ZM235.616 27.0668V34.7813H239.387C240.187 34.7813 240.909 34.7242 241.552 34.6099C242.195 34.4956 242.737 34.2956 243.18 34.0099C243.637 33.7242 243.98 33.3313 244.209 32.8313C244.452 32.3313 244.573 31.7027 244.573 30.9455C244.573 30.2026 244.48 29.5883 244.295 29.1026C244.109 28.6026 243.823 28.2026 243.437 27.9025C243.052 27.6025 242.559 27.3882 241.959 27.2597C241.373 27.1311 240.673 27.0668 239.859 27.0668H235.616ZM239.859 21.6452C242.016 21.6452 243.852 21.8452 245.366 22.2452C246.88 22.6452 248.116 23.2095 249.073 23.9381C250.031 24.6667 250.723 25.5525 251.152 26.5954C251.595 27.6382 251.816 28.8026 251.816 30.0883C251.816 30.7884 251.716 31.4669 251.516 32.1241C251.316 32.767 251.002 33.3742 250.573 33.9456C250.145 34.5028 249.595 35.0171 248.923 35.4885C248.252 35.96 247.445 36.3671 246.502 36.71C248.559 37.21 250.081 38.0172 251.066 39.1315C252.052 40.2458 252.545 41.6887 252.545 43.4602C252.545 44.7888 252.288 46.0246 251.773 47.1675C251.259 48.3104 250.502 49.3104 249.502 50.1676C248.516 51.0105 247.295 51.6748 245.838 52.1605C244.38 52.632 242.716 52.8677 240.844 52.8677H228.373V21.6452H239.859ZM264.37 27.2168V34.5028H274.185V39.8601H264.37V47.2961H277.185V52.8677H257.085V21.6452H277.185V27.2168H264.37ZM308.911 21.6452V52.8677H305.139C304.582 52.8677 304.111 52.782 303.725 52.6105C303.354 52.4248 302.982 52.1105 302.611 51.6676L287.889 33.0456C287.946 33.6027 287.982 34.1456 287.996 34.6742C288.025 35.1885 288.039 35.6742 288.039 36.1314V52.8677H281.653V21.6452H285.467C285.782 21.6452 286.046 21.6595 286.26 21.688C286.474 21.7166 286.667 21.7738 286.839 21.8595C287.01 21.9309 287.175 22.0381 287.332 22.1809C287.489 22.3238 287.667 22.5166 287.867 22.7595L302.718 41.5101C302.646 40.9101 302.596 40.3315 302.568 39.7744C302.539 39.2029 302.525 38.6672 302.525 38.1672V21.6452H308.911ZM336.012 44.7888C336.184 44.7888 336.355 44.8245 336.527 44.896C336.698 44.9531 336.862 45.0603 337.02 45.2174L339.891 48.2389C338.634 49.8819 337.055 51.1248 335.155 51.9676C333.269 52.7962 331.034 53.2105 328.448 53.2105C326.076 53.2105 323.948 52.8105 322.062 52.0105C320.19 51.1962 318.597 50.0819 317.283 48.6675C315.983 47.2389 314.983 45.5531 314.283 43.6102C313.583 41.653 313.233 39.5315 313.233 37.2457C313.233 34.9171 313.612 32.7813 314.369 30.8384C315.126 28.8811 316.19 27.1954 317.562 25.781C318.933 24.3667 320.576 23.2667 322.49 22.4809C324.405 21.6952 326.512 21.3023 328.812 21.3023C329.984 21.3023 331.084 21.4095 332.112 21.6238C333.155 21.8238 334.127 22.1095 335.027 22.4809C335.927 22.8381 336.755 23.2738 337.512 23.7881C338.27 24.3024 338.941 24.8596 339.527 25.4596L337.084 28.7383C336.927 28.9383 336.741 29.124 336.527 29.2954C336.312 29.4526 336.012 29.5312 335.627 29.5312C335.369 29.5312 335.127 29.474 334.898 29.3597C334.669 29.2454 334.427 29.1097 334.169 28.9526C333.912 28.7811 333.627 28.6026 333.312 28.4168C333.012 28.2168 332.648 28.0383 332.219 27.8811C331.805 27.7097 331.312 27.5668 330.741 27.4525C330.184 27.3382 329.526 27.2811 328.769 27.2811C327.569 27.2811 326.469 27.5025 325.469 27.9454C324.483 28.3883 323.626 29.0383 322.898 29.8955C322.183 30.7384 321.626 31.7812 321.226 33.0241C320.84 34.2528 320.648 35.6599 320.648 37.2457C320.648 38.8458 320.862 40.2672 321.29 41.5101C321.733 42.753 322.326 43.8031 323.069 44.6603C323.826 45.5031 324.705 46.146 325.705 46.5889C326.705 47.0318 327.776 47.2532 328.919 47.2532C329.576 47.2532 330.176 47.2246 330.719 47.1675C331.262 47.0961 331.769 46.9889 332.241 46.846C332.712 46.6889 333.155 46.4889 333.569 46.246C333.984 45.9889 334.405 45.6674 334.834 45.2817C335.005 45.1388 335.191 45.0246 335.391 44.9388C335.591 44.8388 335.798 44.7888 336.012 44.7888ZM359.553 40.9316L356.66 32.3813C356.446 31.8384 356.218 31.2027 355.975 30.4741C355.732 29.7312 355.489 28.9311 355.246 28.074C355.032 28.9454 354.803 29.7526 354.56 30.4955C354.318 31.2384 354.089 31.8812 353.875 32.4241L351.003 40.9316H359.553ZM371.061 52.8677H365.446C364.818 52.8677 364.311 52.7248 363.925 52.4391C363.539 52.1391 363.246 51.7605 363.046 51.3033L361.203 45.8603H349.332L347.489 51.3033C347.332 51.7034 347.046 52.0676 346.632 52.3962C346.232 52.7105 345.732 52.8677 345.131 52.8677H339.474L351.56 21.6452H358.975L371.061 52.8677ZM400.781 21.6452V52.8677H397.009C396.452 52.8677 395.981 52.782 395.595 52.6105C395.223 52.4248 394.852 52.1105 394.481 51.6676L379.759 33.0456C379.816 33.6027 379.851 34.1456 379.866 34.6742C379.894 35.1885 379.909 35.6742 379.909 36.1314V52.8677H373.523V21.6452H377.337C377.651 21.6452 377.916 21.6595 378.13 21.688C378.344 21.7166 378.537 21.7738 378.709 21.8595C378.88 21.9309 379.044 22.0381 379.201 22.1809C379.359 22.3238 379.537 22.5166 379.737 22.7595L394.588 41.5101C394.516 40.9101 394.466 40.3315 394.438 39.7744C394.409 39.2029 394.395 38.6672 394.395 38.1672V21.6452H400.781ZM423.339 40.9316L420.446 32.3813C420.232 31.8384 420.003 31.2027 419.76 30.4741C419.517 29.7312 419.275 28.9311 419.032 28.074C418.817 28.9454 418.589 29.7526 418.346 30.4955C418.103 31.2384 417.875 31.8812 417.66 32.4241L414.789 40.9316H423.339ZM434.847 52.8677H429.232C428.604 52.8677 428.096 52.7248 427.711 52.4391C427.325 52.1391 427.032 51.7605 426.832 51.3033L424.989 45.8603H413.117L411.274 51.3033C411.117 51.7034 410.831 52.0676 410.417 52.3962C410.017 52.7105 409.517 52.8677 408.917 52.8677H403.26L415.346 21.6452H422.76L434.847 52.8677Z" fill="#1DB261"/>
<path d="M128.411 75.8642L126.692 76.1686C126.62 75.9487 126.506 75.7395 126.35 75.5408C126.197 75.342 125.99 75.1793 125.728 75.0525C125.466 74.9256 125.138 74.8622 124.745 74.8622C124.208 74.8622 123.76 74.9827 123.401 75.2237C123.042 75.4604 122.862 75.7669 122.862 76.1432C122.862 76.4687 122.982 76.7308 123.223 76.9295C123.464 77.1282 123.853 77.291 124.39 77.4178L125.937 77.773C126.834 77.9801 127.502 78.2993 127.941 78.7305C128.381 79.1618 128.601 79.7219 128.601 80.411C128.601 80.9945 128.432 81.5145 128.094 81.9711C127.76 82.4234 127.292 82.7785 126.692 83.0364C126.096 83.2943 125.405 83.4233 124.618 83.4233C123.528 83.4233 122.638 83.1907 121.949 82.7257C121.26 82.2564 120.837 81.5906 120.68 80.7281L122.513 80.4491C122.627 80.9268 122.862 81.2883 123.217 81.5335C123.572 81.7745 124.035 81.895 124.606 81.895C125.227 81.895 125.724 81.766 126.096 81.5081C126.468 81.246 126.654 80.9268 126.654 80.5506C126.654 80.2462 126.54 79.9904 126.312 79.7832C126.088 79.5761 125.743 79.4197 125.278 79.314L123.629 78.9525C122.72 78.7453 122.048 78.4156 121.613 77.9632C121.181 77.5109 120.966 76.938 120.966 76.2447C120.966 75.6697 121.126 75.1666 121.448 74.7354C121.769 74.3042 122.213 73.9681 122.779 73.7271C123.346 73.4819 123.995 73.3593 124.726 73.3593C125.779 73.3593 126.608 73.5876 127.212 74.0441C127.817 74.4965 128.216 75.1032 128.411 75.8642ZM133.52 83.4423C132.903 83.4423 132.345 83.3281 131.846 83.0999C131.347 82.8673 130.952 82.5312 130.66 82.0916C130.373 81.6519 130.229 81.1128 130.229 80.4745C130.229 79.9249 130.335 79.4725 130.546 79.1174C130.758 78.7622 131.043 78.4811 131.402 78.2739C131.762 78.0668 132.163 77.9104 132.607 77.8047C133.051 77.699 133.503 77.6187 133.964 77.5637C134.548 77.4961 135.021 77.4411 135.385 77.3988C135.748 77.3523 136.013 77.2783 136.177 77.1769C136.342 77.0754 136.425 76.9105 136.425 76.6822V76.6378C136.425 76.084 136.268 75.6549 135.955 75.3505C135.647 75.0461 135.186 74.8939 134.573 74.8939C133.935 74.8939 133.432 75.0355 133.064 75.3188C132.7 75.5978 132.449 75.9086 132.309 76.251L130.527 75.8451C130.739 75.2533 131.047 74.7755 131.453 74.412C131.863 74.0441 132.334 73.7778 132.867 73.6129C133.4 73.4438 133.96 73.3593 134.548 73.3593C134.937 73.3593 135.349 73.4058 135.784 73.4988C136.224 73.5876 136.634 73.7524 137.015 73.9934C137.399 74.2344 137.714 74.579 137.959 75.0271C138.205 75.471 138.327 76.0481 138.327 76.7583V83.2267H136.476V81.895H136.399C136.277 82.1402 136.093 82.3811 135.848 82.6179C135.602 82.8546 135.288 83.0512 134.903 83.2077C134.518 83.3641 134.057 83.4423 133.52 83.4423ZM133.933 81.9203C134.457 81.9203 134.905 81.8168 135.277 81.6096C135.653 81.4024 135.939 81.1319 136.133 80.7979C136.332 80.4597 136.431 80.0982 136.431 79.7135V78.4579C136.363 78.5255 136.232 78.5889 136.038 78.6481C135.848 78.7031 135.63 78.7517 135.385 78.794C135.14 78.832 134.901 78.8679 134.668 78.9018C134.436 78.9314 134.241 78.9567 134.085 78.9779C133.717 79.0244 133.381 79.1026 133.076 79.2125C132.776 79.3224 132.535 79.481 132.354 79.6881C132.176 79.891 132.087 80.1616 132.087 80.4998C132.087 80.9691 132.26 81.3242 132.607 81.5652C132.954 81.802 133.396 81.9203 133.933 81.9203ZM145.4 73.4861V75.0081H140.079V73.4861H145.4ZM141.506 71.1524H143.402V80.3667C143.402 80.7345 143.457 81.0114 143.567 81.1974C143.677 81.3792 143.818 81.5039 143.992 81.5715C144.169 81.635 144.362 81.6667 144.569 81.6667C144.721 81.6667 144.854 81.6561 144.968 81.635C145.083 81.6138 145.171 81.5969 145.235 81.5842L145.577 83.1506C145.467 83.1929 145.311 83.2351 145.108 83.2774C144.905 83.3239 144.651 83.3493 144.347 83.3535C143.848 83.362 143.383 83.2732 142.952 83.0872C142.521 82.9012 142.172 82.6137 141.905 82.2247C141.639 81.8358 141.506 81.3475 141.506 80.7598V71.1524ZM153.667 79.1871V73.4861H155.57V83.2267H153.705V81.5398H153.604C153.38 82.0598 153.021 82.4932 152.526 82.8399C152.036 83.1823 151.425 83.3535 150.693 83.3535C150.068 83.3535 149.514 83.2161 149.032 82.9413C148.554 82.6623 148.178 82.2501 147.903 81.7047C147.632 81.1593 147.497 80.485 147.497 79.6818V73.4861H149.393V79.4535C149.393 80.1172 149.577 80.6457 149.945 81.0389C150.313 81.432 150.79 81.6286 151.378 81.6286C151.733 81.6286 152.086 81.5398 152.437 81.3623C152.792 81.1847 153.086 80.9163 153.319 80.5569C153.555 80.1975 153.672 79.741 153.667 79.1871ZM167.39 73.4861V75.0081H162.07V73.4861H167.39ZM163.497 71.1524H165.393V80.3667C165.393 80.7345 165.448 81.0114 165.558 81.1974C165.668 81.3792 165.809 81.5039 165.983 81.5715C166.16 81.635 166.353 81.6667 166.56 81.6667C166.712 81.6667 166.845 81.6561 166.959 81.635C167.073 81.6138 167.162 81.5969 167.226 81.5842L167.568 83.1506C167.458 83.1929 167.302 83.2351 167.099 83.2774C166.896 83.3239 166.642 83.3493 166.338 83.3535C165.839 83.362 165.374 83.2732 164.943 83.0872C164.511 82.9012 164.163 82.6137 163.896 82.2247C163.63 81.8358 163.497 81.3475 163.497 80.7598V71.1524ZM175.658 79.1871V73.4861H177.561V83.2267H175.696V81.5398H175.595C175.371 82.0598 175.011 82.4932 174.517 82.8399C174.026 83.1823 173.415 83.3535 172.684 83.3535C172.058 83.3535 171.505 83.2161 171.023 82.9413C170.545 82.6623 170.169 82.2501 169.894 81.7047C169.623 81.1593 169.488 80.485 169.488 79.6818V73.4861H171.384V79.4535C171.384 80.1172 171.568 80.6457 171.936 81.0389C172.304 81.432 172.781 81.6286 173.369 81.6286C173.724 81.6286 174.077 81.5398 174.428 81.3623C174.783 81.1847 175.077 80.9163 175.309 80.5569C175.546 80.1975 175.662 79.741 175.658 79.1871ZM180.108 73.4861H182.005V83.8608C182.005 84.5119 181.886 85.0615 181.649 85.5096C181.417 85.9578 181.07 86.2981 180.609 86.5306C180.153 86.7631 179.588 86.8794 178.916 86.8794C178.849 86.8794 178.785 86.8794 178.726 86.8794C178.663 86.8794 178.597 86.8773 178.529 86.8731V85.2433C178.589 85.2433 178.641 85.2433 178.688 85.2433C178.73 85.2433 178.779 85.2433 178.834 85.2433C179.282 85.2433 179.605 85.1228 179.804 84.8818C180.007 84.6451 180.108 84.3005 180.108 83.8482V73.4861ZM181.047 71.9832C180.717 71.9832 180.434 71.8732 180.197 71.6534C179.965 71.4293 179.848 71.163 179.848 70.8544C179.848 70.5415 179.965 70.2752 180.197 70.0553C180.434 69.8313 180.717 69.7192 181.047 69.7192C181.377 69.7192 181.658 69.8313 181.89 70.0553C182.127 70.2752 182.245 70.5415 182.245 70.8544C182.245 71.163 182.127 71.4293 181.89 71.6534C181.658 71.8732 181.377 71.9832 181.047 71.9832ZM190.726 79.1871V73.4861H192.628V83.2267H190.764V81.5398H190.662C190.438 82.0598 190.079 82.4932 189.584 82.8399C189.094 83.1823 188.483 83.3535 187.752 83.3535C187.126 83.3535 186.572 83.2161 186.09 82.9413C185.612 82.6623 185.236 82.2501 184.961 81.7047C184.691 81.1593 184.555 80.485 184.555 79.6818V73.4861H186.452V79.4535C186.452 80.1172 186.635 80.6457 187.003 81.0389C187.371 81.432 187.849 81.6286 188.436 81.6286C188.792 81.6286 189.145 81.5398 189.495 81.3623C189.851 81.1847 190.144 80.9163 190.377 80.5569C190.614 80.1975 190.73 79.741 190.726 79.1871ZM198.011 83.4423C197.393 83.4423 196.835 83.3281 196.336 83.0999C195.838 82.8673 195.442 82.5312 195.151 82.0916C194.863 81.6519 194.719 81.1128 194.719 80.4745C194.719 79.9249 194.825 79.4725 195.036 79.1174C195.248 78.7622 195.533 78.4811 195.892 78.2739C196.252 78.0668 196.653 77.9104 197.097 77.8047C197.541 77.699 197.994 77.6187 198.454 77.5637C199.038 77.4961 199.511 77.4411 199.875 77.3988C200.239 77.3523 200.503 77.2783 200.668 77.1769C200.833 77.0754 200.915 76.9105 200.915 76.6822V76.6378C200.915 76.084 200.759 75.6549 200.446 75.3505C200.137 75.0461 199.676 74.8939 199.063 74.8939C198.425 74.8939 197.922 75.0355 197.554 75.3188C197.19 75.5978 196.939 75.9086 196.799 76.251L195.017 75.8451C195.229 75.2533 195.537 74.7755 195.943 74.412C196.353 74.0441 196.825 73.7778 197.357 73.6129C197.89 73.4438 198.45 73.3593 199.038 73.3593C199.427 73.3593 199.839 73.4058 200.274 73.4988C200.714 73.5876 201.124 73.7524 201.505 73.9934C201.889 74.2344 202.204 74.579 202.45 75.0271C202.695 75.471 202.817 76.0481 202.817 76.7583V83.2267H200.966V81.895H200.89C200.767 82.1402 200.583 82.3811 200.338 82.6179C200.093 82.8546 199.778 83.0512 199.393 83.2077C199.008 83.3641 198.547 83.4423 198.011 83.4423ZM198.423 81.9203C198.947 81.9203 199.395 81.8168 199.767 81.6096C200.143 81.4024 200.429 81.1319 200.623 80.7979C200.822 80.4597 200.921 80.0982 200.921 79.7135V78.4579C200.854 78.5255 200.723 78.5889 200.528 78.6481C200.338 78.7031 200.12 78.7517 199.875 78.794C199.63 78.832 199.391 78.8679 199.158 78.9018C198.926 78.9314 198.731 78.9567 198.575 78.9779C198.207 79.0244 197.871 79.1026 197.567 79.2125C197.266 79.3224 197.025 79.481 196.844 79.6881C196.666 79.891 196.577 80.1616 196.577 80.4998C196.577 80.9691 196.751 81.3242 197.097 81.5652C197.444 81.802 197.886 81.9203 198.423 81.9203ZM207.239 77.4432V83.2267H205.343V73.4861H207.163V75.0715H207.283C207.508 74.5557 207.858 74.1414 208.336 73.8285C208.818 73.5157 209.425 73.3593 210.156 73.3593C210.82 73.3593 211.401 73.4988 211.9 73.7778C212.399 74.0526 212.786 74.4627 213.061 75.0081C213.335 75.5534 213.473 76.2277 213.473 77.031V83.2267H211.577V77.2593C211.577 76.5533 211.393 76.0016 211.025 75.6042C210.657 75.2025 210.152 75.0017 209.509 75.0017C209.07 75.0017 208.679 75.0968 208.336 75.2871C207.998 75.4773 207.729 75.7564 207.531 76.1242C207.336 76.4878 207.239 76.9274 207.239 77.4432ZM220.894 83.2267V70.2392H222.79V75.0651H222.904C223.014 74.8622 223.173 74.6276 223.38 74.3612C223.587 74.0949 223.874 73.8624 224.242 73.6637C224.61 73.4607 225.096 73.3593 225.701 73.3593C226.487 73.3593 227.189 73.558 227.806 73.9554C228.423 74.3528 228.908 74.9256 229.258 75.6739C229.614 76.4222 229.791 77.3227 229.791 78.3754C229.791 79.4281 229.616 80.3307 229.265 81.0832C228.914 81.8315 228.432 82.4086 227.819 82.8145C227.206 83.2161 226.506 83.4169 225.72 83.4169C225.128 83.4169 224.644 83.3176 224.268 83.1189C223.896 82.9202 223.604 82.6877 223.393 82.4213C223.181 82.155 223.018 81.9182 222.904 81.7111H222.746V83.2267H220.894ZM222.752 78.3564C222.752 79.0413 222.851 79.6416 223.05 80.1574C223.249 80.6732 223.536 81.0769 223.913 81.3686C224.289 81.6561 224.75 81.7998 225.295 81.7998C225.861 81.7998 226.335 81.6498 226.715 81.3496C227.096 81.0452 227.383 80.633 227.578 80.113C227.777 79.593 227.876 79.0075 227.876 78.3564C227.876 77.7138 227.779 77.1367 227.584 76.6252C227.394 76.1136 227.107 75.7099 226.722 75.4139C226.341 75.118 225.866 74.97 225.295 74.97C224.745 74.97 224.28 75.1116 223.9 75.3949C223.524 75.6781 223.238 76.0734 223.044 76.5808C222.849 77.0881 222.752 77.68 222.752 78.3564ZM234.755 83.4423C234.138 83.4423 233.58 83.3281 233.081 83.0999C232.582 82.8673 232.187 82.5312 231.895 82.0916C231.607 81.6519 231.464 81.1128 231.464 80.4745C231.464 79.9249 231.569 79.4725 231.781 79.1174C231.992 78.7622 232.278 78.4811 232.637 78.2739C232.996 78.0668 233.398 77.9104 233.842 77.8047C234.286 77.699 234.738 77.6187 235.199 77.5637C235.782 77.4961 236.256 77.4411 236.619 77.3988C236.983 77.3523 237.247 77.2783 237.412 77.1769C237.577 77.0754 237.659 76.9105 237.659 76.6822V76.6378C237.659 76.084 237.503 75.6549 237.19 75.3505C236.881 75.0461 236.421 74.8939 235.808 74.8939C235.169 74.8939 234.666 75.0355 234.298 75.3188C233.935 75.5978 233.683 75.9086 233.544 76.251L231.762 75.8451C231.973 75.2533 232.282 74.7755 232.688 74.412C233.098 74.0441 233.569 73.7778 234.102 73.6129C234.634 73.4438 235.195 73.3593 235.782 73.3593C236.171 73.3593 236.583 73.4058 237.019 73.4988C237.459 73.5876 237.869 73.7524 238.249 73.9934C238.634 74.2344 238.949 74.579 239.194 75.0271C239.439 75.471 239.562 76.0481 239.562 76.7583V83.2267H237.71V81.895H237.634C237.511 82.1402 237.327 82.3811 237.082 82.6179C236.837 82.8546 236.522 83.0512 236.137 83.2077C235.753 83.3641 235.292 83.4423 234.755 83.4423ZM235.167 81.9203C235.691 81.9203 236.14 81.8168 236.512 81.6096C236.888 81.4024 237.173 81.1319 237.368 80.7979C237.566 80.4597 237.666 80.0982 237.666 79.7135V78.4579C237.598 78.5255 237.467 78.5889 237.273 78.6481C237.082 78.7031 236.865 78.7517 236.619 78.794C236.374 78.832 236.135 78.8679 235.903 78.9018C235.67 78.9314 235.476 78.9567 235.319 78.9779C234.952 79.0244 234.615 79.1026 234.311 79.2125C234.011 79.3224 233.77 79.481 233.588 79.6881C233.411 79.891 233.322 80.1616 233.322 80.4998C233.322 80.9691 233.495 81.3242 233.842 81.5652C234.188 81.802 234.63 81.9203 235.167 81.9203ZM243.983 77.4432V83.2267H242.087V73.4861H243.907V75.0715H244.028C244.252 74.5557 244.603 74.1414 245.081 73.8285C245.562 73.5157 246.169 73.3593 246.901 73.3593C247.564 73.3593 248.146 73.4988 248.644 73.7778C249.143 74.0526 249.53 74.4627 249.805 75.0081C250.08 75.5534 250.217 76.2277 250.217 77.031V83.2267H248.321V77.2593C248.321 76.5533 248.137 76.0016 247.769 75.6042C247.402 75.2025 246.896 75.0017 246.254 75.0017C245.814 75.0017 245.423 75.0968 245.081 75.2871C244.742 75.4773 244.474 75.7564 244.275 76.1242C244.081 76.4878 243.983 76.9274 243.983 77.4432ZM257.307 73.4861V75.0081H251.986V73.4861H257.307ZM253.413 71.1524H255.309V80.3667C255.309 80.7345 255.364 81.0114 255.474 81.1974C255.584 81.3792 255.726 81.5039 255.899 81.5715C256.077 81.635 256.269 81.6667 256.476 81.6667C256.628 81.6667 256.762 81.6561 256.876 81.635C256.99 81.6138 257.079 81.5969 257.142 81.5842L257.485 83.1506C257.375 83.1929 257.218 83.2351 257.015 83.2774C256.812 83.3239 256.559 83.3493 256.254 83.3535C255.755 83.362 255.29 83.2732 254.859 83.0872C254.428 82.9012 254.079 82.6137 253.813 82.2247C253.546 81.8358 253.413 81.3475 253.413 80.7598V71.1524ZM265.575 79.1871V73.4861H267.477V83.2267H265.613V81.5398H265.511C265.287 82.0598 264.928 82.4932 264.433 82.8399C263.943 83.1823 263.332 83.3535 262.601 83.3535C261.975 83.3535 261.421 83.2161 260.939 82.9413C260.461 82.6623 260.085 82.2501 259.81 81.7047C259.54 81.1593 259.404 80.485 259.404 79.6818V73.4861H261.301V79.4535C261.301 80.1172 261.484 80.6457 261.852 81.0389C262.22 81.432 262.698 81.6286 263.285 81.6286C263.641 81.6286 263.994 81.5398 264.345 81.3623C264.7 81.1847 264.993 80.9163 265.226 80.5569C265.463 80.1975 265.579 79.741 265.575 79.1871ZM282.05 75.8642L280.332 76.1686C280.26 75.9487 280.145 75.7395 279.989 75.5408C279.837 75.342 279.63 75.1793 279.368 75.0525C279.105 74.9256 278.778 74.8622 278.385 74.8622C277.848 74.8622 277.4 74.9827 277.04 75.2237C276.681 75.4604 276.501 75.7669 276.501 76.1432C276.501 76.4687 276.622 76.7308 276.863 76.9295C277.104 77.1282 277.493 77.291 278.03 77.4178L279.577 77.773C280.473 77.9801 281.141 78.2993 281.581 78.7305C282.02 79.1618 282.24 79.7219 282.24 80.411C282.24 80.9945 282.071 81.5145 281.733 81.9711C281.399 82.4234 280.932 82.7785 280.332 83.0364C279.735 83.2943 279.044 83.4233 278.258 83.4233C277.167 83.4233 276.277 83.1907 275.588 82.7257C274.899 82.2564 274.476 81.5906 274.32 80.7281L276.152 80.4491C276.267 80.9268 276.501 81.2883 276.856 81.5335C277.211 81.7745 277.674 81.895 278.245 81.895C278.867 81.895 279.363 81.766 279.735 81.5081C280.107 81.246 280.293 80.9268 280.293 80.5506C280.293 80.2462 280.179 79.9904 279.951 79.7832C279.727 79.5761 279.382 79.4197 278.917 79.314L277.269 78.9525C276.36 78.7453 275.687 78.4156 275.252 77.9632C274.821 77.5109 274.605 76.938 274.605 76.2447C274.605 75.6697 274.766 75.1666 275.087 74.7354C275.408 74.3042 275.852 73.9681 276.419 73.7271C276.985 73.4819 277.634 73.3593 278.366 73.3593C279.418 73.3593 280.247 73.5876 280.852 74.0441C281.456 74.4965 281.856 75.1032 282.05 75.8642ZM288.523 83.4233C287.564 83.4233 286.737 83.2182 286.044 82.8081C285.355 82.3938 284.822 81.8125 284.446 81.0642C284.074 80.3117 283.888 79.4302 283.888 78.4198C283.888 77.4221 284.074 76.5427 284.446 75.7817C284.822 75.0207 285.346 74.4268 286.018 73.9998C286.695 73.5728 287.485 73.3593 288.39 73.3593C288.94 73.3593 289.472 73.4502 289.988 73.6319C290.504 73.8137 290.967 74.0991 291.377 74.4881C291.787 74.877 292.11 75.3822 292.347 76.0037C292.584 76.6209 292.702 77.3713 292.702 78.2549V78.9271H284.959V77.5066H290.844C290.844 77.0078 290.743 76.566 290.54 76.1812C290.337 75.7923 290.051 75.4858 289.684 75.2617C289.32 75.0377 288.893 74.9256 288.403 74.9256C287.87 74.9256 287.405 75.0567 287.008 75.3188C286.614 75.5767 286.31 75.9149 286.094 76.3334C285.883 76.7478 285.777 77.198 285.777 77.6842V78.794C285.777 79.445 285.891 79.9988 286.12 80.4554C286.352 80.912 286.676 81.2608 287.09 81.5018C287.504 81.7385 287.988 81.8569 288.542 81.8569C288.902 81.8569 289.229 81.8062 289.525 81.7047C289.821 81.599 290.077 81.4426 290.292 81.2354C290.508 81.0283 290.673 80.7725 290.787 80.4681L292.582 80.7915C292.438 81.32 292.18 81.7829 291.808 82.1803C291.44 82.5735 290.977 82.88 290.419 83.0999C289.865 83.3155 289.233 83.4233 288.523 83.4233ZM302.105 75.8642L300.387 76.1686C300.315 75.9487 300.201 75.7395 300.044 75.5408C299.892 75.342 299.685 75.1793 299.423 75.0525C299.161 74.9256 298.833 74.8622 298.44 74.8622C297.903 74.8622 297.455 74.9827 297.095 75.2237C296.736 75.4604 296.556 75.7669 296.556 76.1432C296.556 76.4687 296.677 76.7308 296.918 76.9295C297.159 77.1282 297.548 77.291 298.085 77.4178L299.632 77.773C300.528 77.9801 301.196 78.2993 301.636 78.7305C302.076 79.1618 302.295 79.7219 302.295 80.411C302.295 80.9945 302.126 81.5145 301.788 81.9711C301.454 82.4234 300.987 82.7785 300.387 83.0364C299.791 83.2943 299.099 83.4233 298.313 83.4233C297.222 83.4233 296.332 83.1907 295.643 82.7257C294.954 82.2564 294.531 81.5906 294.375 80.7281L296.208 80.4491C296.322 80.9268 296.556 81.2883 296.911 81.5335C297.267 81.7745 297.73 81.895 298.3 81.895C298.922 81.895 299.418 81.766 299.791 81.5081C300.163 81.246 300.349 80.9268 300.349 80.5506C300.349 80.2462 300.234 79.9904 300.006 79.7832C299.782 79.5761 299.437 79.4197 298.972 79.314L297.324 78.9525C296.415 78.7453 295.742 78.4156 295.307 77.9632C294.876 77.5109 294.66 76.938 294.66 76.2447C294.66 75.6697 294.821 75.1666 295.142 74.7354C295.463 74.3042 295.907 73.9681 296.474 73.7271C297.04 73.4819 297.689 73.3593 298.421 73.3593C299.473 73.3593 300.302 73.5876 300.907 74.0441C301.511 74.4965 301.911 75.1032 302.105 75.8642ZM307.215 83.4423C306.598 83.4423 306.04 83.3281 305.541 83.0999C305.042 82.8673 304.647 82.5312 304.355 82.0916C304.067 81.6519 303.924 81.1128 303.924 80.4745C303.924 79.9249 304.029 79.4725 304.241 79.1174C304.452 78.7622 304.737 78.4811 305.097 78.2739C305.456 78.0668 305.858 77.9104 306.302 77.8047C306.746 77.699 307.198 77.6187 307.659 77.5637C308.242 77.4961 308.716 77.4411 309.079 77.3988C309.443 77.3523 309.707 77.2783 309.872 77.1769C310.037 77.0754 310.119 76.9105 310.119 76.6822V76.6378C310.119 76.084 309.963 75.6549 309.65 75.3505C309.341 75.0461 308.881 74.8939 308.268 74.8939C307.629 74.8939 307.126 75.0355 306.758 75.3188C306.395 75.5978 306.143 75.9086 306.004 76.251L304.222 75.8451C304.433 75.2533 304.742 74.7755 305.148 74.412C305.558 74.0441 306.029 73.7778 306.562 73.6129C307.094 73.4438 307.655 73.3593 308.242 73.3593C308.631 73.3593 309.043 73.4058 309.479 73.4988C309.918 73.5876 310.329 73.7524 310.709 73.9934C311.094 74.2344 311.409 74.579 311.654 75.0271C311.899 75.471 312.022 76.0481 312.022 76.7583V83.2267H310.17V81.895H310.094C309.971 82.1402 309.787 82.3811 309.542 82.6179C309.297 82.8546 308.982 83.0512 308.597 83.2077C308.213 83.3641 307.752 83.4423 307.215 83.4423ZM307.627 81.9203C308.151 81.9203 308.599 81.8168 308.971 81.6096C309.348 81.4024 309.633 81.1319 309.828 80.7979C310.026 80.4597 310.126 80.0982 310.126 79.7135V78.4579C310.058 78.5255 309.927 78.5889 309.732 78.6481C309.542 78.7031 309.324 78.7517 309.079 78.794C308.834 78.832 308.595 78.8679 308.363 78.9018C308.13 78.9314 307.936 78.9567 307.779 78.9779C307.411 79.0244 307.075 79.1026 306.771 79.2125C306.471 79.3224 306.23 79.481 306.048 79.6881C305.87 79.891 305.782 80.1616 305.782 80.4998C305.782 80.9691 305.955 81.3242 306.302 81.5652C306.648 81.802 307.09 81.9203 307.627 81.9203ZM314.547 83.2267V73.4861H316.367V75.0715H316.488C316.691 74.5346 317.023 74.116 317.483 73.8159C317.944 73.5115 318.496 73.3593 319.139 73.3593C319.79 73.3593 320.335 73.5115 320.775 73.8159C321.219 74.1202 321.546 74.5388 321.758 75.0715H321.859C322.092 74.5515 322.461 74.1372 322.969 73.8285C323.476 73.5157 324.081 73.3593 324.782 73.3593C325.666 73.3593 326.387 73.6362 326.945 74.19C327.507 74.7438 327.788 75.5788 327.788 76.6949V83.2267H325.892V76.8725C325.892 76.213 325.713 75.7352 325.353 75.4393C324.994 75.1433 324.565 74.9954 324.066 74.9954C323.449 74.9954 322.969 75.1856 322.626 75.5661C322.284 75.9424 322.113 76.4265 322.113 77.0183V83.2267H320.223V76.752C320.223 76.2235 320.058 75.7986 319.728 75.4773C319.399 75.156 318.969 74.9954 318.441 74.9954C318.082 74.9954 317.75 75.0905 317.445 75.2807C317.145 75.4668 316.902 75.7268 316.716 76.0608C316.534 76.3947 316.443 76.7816 316.443 77.2213V83.2267H314.547ZM333.164 83.4423C332.547 83.4423 331.989 83.3281 331.49 83.0999C330.991 82.8673 330.596 82.5312 330.304 82.0916C330.017 81.6519 329.873 81.1128 329.873 80.4745C329.873 79.9249 329.979 79.4725 330.19 79.1174C330.402 78.7622 330.687 78.4811 331.046 78.2739C331.406 78.0668 331.807 77.9104 332.251 77.8047C332.695 77.699 333.147 77.6187 333.608 77.5637C334.192 77.4961 334.665 77.4411 335.029 77.3988C335.392 77.3523 335.657 77.2783 335.821 77.1769C335.986 77.0754 336.069 76.9105 336.069 76.6822V76.6378C336.069 76.084 335.912 75.6549 335.6 75.3505C335.291 75.0461 334.83 74.8939 334.217 74.8939C333.579 74.8939 333.076 75.0355 332.708 75.3188C332.344 75.5978 332.093 75.9086 331.953 76.251L330.171 75.8451C330.383 75.2533 330.691 74.7755 331.097 74.412C331.507 74.0441 331.979 73.7778 332.511 73.6129C333.044 73.4438 333.604 73.3593 334.192 73.3593C334.581 73.3593 334.993 73.4058 335.428 73.4988C335.868 73.5876 336.278 73.7524 336.659 73.9934C337.043 74.2344 337.358 74.579 337.603 75.0271C337.849 75.471 337.971 76.0481 337.971 76.7583V83.2267H336.12V81.895H336.043C335.921 82.1402 335.737 82.3811 335.492 82.6179C335.247 82.8546 334.932 83.0512 334.547 83.2077C334.162 83.3641 333.701 83.4423 333.164 83.4423ZM333.577 81.9203C334.101 81.9203 334.549 81.8168 334.921 81.6096C335.297 81.4024 335.583 81.1319 335.777 80.7979C335.976 80.4597 336.075 80.0982 336.075 79.7135V78.4579C336.008 78.5255 335.876 78.5889 335.682 78.6481C335.492 78.7031 335.274 78.7517 335.029 78.794C334.784 78.832 334.545 78.8679 334.312 78.9018C334.08 78.9314 333.885 78.9567 333.729 78.9779C333.361 79.0244 333.025 79.1026 332.72 79.2125C332.42 79.3224 332.179 79.481 331.998 79.6881C331.82 79.891 331.731 80.1616 331.731 80.4998C331.731 80.9691 331.905 81.3242 332.251 81.5652C332.598 81.802 333.04 81.9203 333.577 81.9203Z" fill="#9A9A9B"/>
</svg>
