<svg width="1512" height="172" viewBox="0 0 1512 172" fill="none" xmlns="http://www.w3.org/2000/svg">
<path d="M1512 172.047L1391.89 129.972H1321.51H1251.13H1180.75H1110.38H1040H969.618L941.965 99.6454L921.068 76.7439L904.731 58.8331L891.618 44.4565L880.85 32.6495L871.85 22.7882L864.216 14.4265H831.261H798.305H765.349H732.378H699.423H666.467L657.838 22.7882L647.68 32.6495L635.501 44.4565L620.679 58.8331L602.234 76.7439L578.619 99.6454L547.372 129.972H476.99H406.608H336.241H265.859H195.477H125.11L0 172.047" stroke="#1DB261" stroke-width="1.08501" stroke-linecap="round" stroke-linejoin="round"/>
<path d="M84 172.046L195.476 129.972L275.853 99.6446H336.404H396.954H457.519H518.069L549.094 76.7432H602.233H655.372H708.511H761.65H814.789H867.928H921.068H974.207L1002.51 99.6446H1063.06H1123.63H1184.18H1244.73L1321.51 129.972L1428 172.046" stroke="#1DB261" stroke-width="1.08501" stroke-linecap="round" stroke-linejoin="round"/>
<path d="M168.001 172.046L265.858 129.971L336.404 99.6446L389.676 76.7431L431.32 58.8323H478.652H525.999L550.133 44.4557H592.817H635.5H678.199H720.882H763.566H806.25H848.933H891.617H934.3H976.984L999.425 58.8323H1046.76H1094.1L1133.62 76.7431L1184.18 99.6446L1251.13 129.971L1344 172.046" stroke="#1DB261" stroke-width="1.08501" stroke-linecap="round" stroke-linejoin="round"/>
<path d="M125.111 129.971L215.29 99.6445H275.855L336.539 76.7431H389.678H442.817H495.956H549.096L573.348 58.8323L592.819 44.4557L608.814 32.6487H647.681H686.533H725.399H764.266H803.133H841.985H880.851H919.718L934.302 44.4557L952.08 58.8323L974.209 76.7431H1027.35H1080.49H1133.63H1186.76L1244.73 99.6445H1305.3L1391.9 129.971" stroke="#1DB261" stroke-width="1.08501" stroke-linecap="round" stroke-linejoin="round"/>
<path d="M252.003 172.046L336.241 129.971L396.955 99.6442L442.817 76.7427L478.654 58.8319L507.451 44.4553L531.095 32.6483H569.947L586.506 22.787H622.18H657.839H693.512H729.186H764.845H800.518H836.177H871.851H907.524H943.183H978.856H1014.52L1036.3 32.6483H1075.15L1105.04 44.4553H1147.73L1188.78 58.8319" stroke="#1DB261" stroke-width="1.08501" stroke-linecap="round" stroke-linejoin="round"/>
<path d="M1512 172.046H1428H1344H1260H1176H1092H1008.01H924.009L899.251 129.972L881.4 99.6448L867.929 76.7433L857.399 58.8325L848.934 44.4559L841.983 32.6489L836.176 22.7876L831.261 14.4259L827.028 7.23797L823.359 1H794.755H766.136H737.532H708.913L704.502 7.23797L699.423 14.4259L693.512 22.7876L686.531 32.6489L678.2 44.4559L668.026 58.8325L655.373 76.7433L639.184 99.6448L617.739 129.972L588.006 172.046H504.005H420.004H336.003H252.002H168.002H84.0007H0" stroke="#1DB261" stroke-width="1.08501" stroke-linecap="round" stroke-linejoin="round"/>
<path d="M924.008 172.047H840.007H756.006H672.006H588.005" stroke="#1DB261" stroke-width="1.08501" stroke-linecap="round" stroke-linejoin="round"/>
<path d="M336.004 172.047L406.608 129.972L457.52 99.6455L495.956 76.744L526.001 58.8333H573.348H620.68H668.027H715.374H762.706H810.053H857.4H904.732H952.079H999.426L1027.35 76.744L1063.07 99.6455L1110.38 129.972L1176 172.047" stroke="#1DB261" stroke-width="1.08501" stroke-linecap="round" stroke-linejoin="round"/>
<path d="M215.289 99.6457L283.399 76.7442H336.538L383.974 58.8334H431.321L464.767 44.4568H507.45H550.134L569.946 32.6498H608.813L622.179 22.7885L633.511 14.4268H666.467L673.878 7.23889H704.502H735.141H765.765H796.404H827.028H857.667L864.216 14.4268H897.172L907.524 22.7885L919.717 32.6498H958.568L976.984 44.4568H1019.67H1062.35L1094.1 58.8334H1141.45L1186.76 76.7442H1239.9L1305.29 99.6457" stroke="#1DB261" stroke-width="1.08501" stroke-linecap="round" stroke-linejoin="round"/>
<path d="M420.005 172.047L476.991 129.972L518.07 99.6449H578.62H639.185H699.735H760.3H820.85H881.401H941.966H1002.52L1040 129.972L1092 172.047" stroke="#1DB261" stroke-width="1.08501" stroke-linecap="round" stroke-linejoin="round"/>
<path d="M504.006 172.046L547.373 129.972H617.74H688.121H758.503H828.87H899.252H969.619L1008.01 172.046" stroke="#1DB261" stroke-width="1.08501" stroke-linecap="round" stroke-linejoin="round"/>
<path d="M283.399 76.7437L336.628 58.8329H383.975L422.084 44.4563H464.767L492.228 32.6493H531.095L550.833 22.788H586.506L600.556 14.4263H633.512L643.24 7.23834L651.69 1.00037H680.294H708.913" stroke="#1DB261" stroke-width="1.08501" stroke-linecap="round" stroke-linejoin="round"/>
<path d="M336.628 58.8329L379.401 44.4562H422.084L453.362 32.6493H492.228L515.174 22.788H550.833L567.586 14.4263H600.556L612.616 7.23834H643.24H673.879L680.295 1.00037" stroke="#1DB261" stroke-width="1.08501" stroke-linecap="round" stroke-linejoin="round"/>
<path d="M672.007 172.047L688.121 129.972L699.735 99.6451L708.512 76.7437L715.374 58.8329L720.883 44.4562L725.398 32.6493L729.186 22.788L732.379 14.4263L735.141 7.23834L737.532 1.00037" stroke="#1DB261" stroke-width="1.08501" stroke-linecap="round" stroke-linejoin="round"/>
<path d="M379.399 44.4562L414.509 32.6493H453.361L479.499 22.788H515.173L534.629 14.4263H567.584L581.976 7.23834L594.466 1.00037H623.07H651.689" stroke="#1DB261" stroke-width="1.08501" stroke-linecap="round" stroke-linejoin="round"/>
<path d="M414.507 32.6493L443.839 22.788H479.498L501.671 14.4263H534.627L551.335 7.23834H581.974H612.613L623.068 1.00037" stroke="#1DB261" stroke-width="1.08501" stroke-linecap="round" stroke-linejoin="round"/>
<path d="M966.427 1.00037H995.031H1023.65L1041.46 7.23834L1061.97 14.4263" stroke="#1DB261" stroke-width="1.08501" stroke-linecap="round" stroke-linejoin="round"/>
<path d="M823.359 1.00037H851.978L857.667 7.23834H888.291L897.172 14.4263H930.128L943.183 22.788L958.569 32.6493H997.435L1019.67 44.4562L1046.76 58.8329L1080.49 76.7437L1123.63 99.6451L1180.75 129.972L1260 172.047" stroke="#1DB261" stroke-width="1.08501" stroke-linecap="round" stroke-linejoin="round"/>
<path d="M909.203 1.00037H937.807H966.426L980.194 7.23834L996.055 14.4263H1029.01L1050.19 22.788H1085.86L1114.02 32.6493" stroke="#1DB261" stroke-width="1.08501" stroke-linecap="round" stroke-linejoin="round"/>
<path d="M851.979 1.00037H880.584H909.203L918.931 7.23834L930.129 14.4263H963.099L978.857 22.788L997.436 32.6493H1036.3L1062.35 44.4563H1105.04L1141.45 58.8329H1188.78L1239.9 76.7437" stroke="#1DB261" stroke-width="1.08501" stroke-linecap="round" stroke-linejoin="round"/>
<path d="M443.841 22.788L468.717 14.4263H501.673L520.713 7.23834L537.243 1.00037H565.847H594.466" stroke="#1DB261" stroke-width="1.08501" stroke-linecap="round" stroke-linejoin="round"/>
<path d="M468.717 14.4263L490.073 7.23834H520.712H551.336L565.846 1.00037" stroke="#1DB261" stroke-width="1.08501" stroke-linecap="round" stroke-linejoin="round"/>
<path d="M490.073 7.23834L508.623 1.00037H537.242" stroke="#1DB261" stroke-width="1.08501" stroke-linecap="round" stroke-linejoin="round"/>
<path d="M995.028 1.00037L1010.82 7.23834H1041.45" stroke="#1DB261" stroke-width="1.08501" stroke-linecap="round" stroke-linejoin="round"/>
<path d="M937.808 1.00037L949.555 7.23834H980.194H1010.82L1029.01 14.4263H1061.97L1085.86 22.788" stroke="#1DB261" stroke-width="1.08501" stroke-linecap="round" stroke-linejoin="round"/>
<path d="M880.581 1.00037L888.289 7.23834H918.928H949.552L963.097 14.4263H996.052L1014.51 22.788H1050.19L1075.15 32.6493H1114.02L1147.73 44.4562" stroke="#1DB261" stroke-width="1.08501" stroke-linecap="round" stroke-linejoin="round"/>
<path d="M794.755 1.00037L796.403 7.23834L798.304 14.4263L800.517 22.788L803.131 32.6493L806.25 44.4562L810.052 58.8329L814.79 76.7437L820.849 99.6451L828.869 129.972L840.008 172.047" stroke="#1DB261" stroke-width="1.08501" stroke-linecap="round" stroke-linejoin="round"/>
<path d="M766.138 1.00037L765.766 7.23834L765.351 14.4263L764.846 22.788L764.266 32.6493L763.568 44.4562L762.707 58.8329L761.652 76.7437L760.301 99.6451L758.504 129.972L756.009 172.047" stroke="#1DB261" stroke-width="1.08501" stroke-linecap="round" stroke-linejoin="round"/>
</svg>
